<svg width="761" height="257" viewBox="0 0 761 257" fill="none" xmlns="http://www.w3.org/2000/svg">
<path fill-rule="evenodd" clip-rule="evenodd" d="M106.144 2.91424C99.5837 1.37897 93.7915 0.611328 88.767 0.611328C82.2071 0.611328 74.9495 2.28618 66.9939 5.63587C59.178 8.846 51.7807 13.1029 44.8022 18.4066C37.9632 23.7103 32.2408 29.7816 27.635 36.6206C23.0292 43.4595 20.7262 50.5078 20.7262 57.7655C20.7262 61.9526 21.2147 66.2095 22.1917 70.5362C23.1687 74.7234 24.704 78.5616 26.7976 82.0508C29.0307 85.4005 31.8919 88.1919 35.3812 90.4251C39.01 92.5186 43.4065 93.5654 48.5706 93.5654C50.6642 93.5654 52.7577 93.4956 54.8513 93.356L61.5507 92.5186C60.155 95.0309 58.6895 97.3338 57.1542 99.4274C55.6189 101.521 54.1534 103.754 52.7577 106.127C49.8267 108.36 46.6864 111.082 43.3367 114.292C40.1266 117.362 37.1258 120.084 34.3344 122.457C32.9387 123.713 30.9847 124.899 28.4724 126.016C25.9601 127.132 23.0989 128.388 19.8888 129.784C16.8183 131.18 13.5384 132.855 10.0491 134.809C6.69939 136.623 3.3497 138.856 0 141.508L1.67485 143.811C2.93098 143.392 4.95476 143.602 7.74617 144.439C10.6772 145.276 13.7477 146.393 16.9578 147.789C20.168 149.184 23.1687 150.65 25.9601 152.185C28.7516 153.581 30.6358 154.767 31.6128 155.744C33.0085 156.023 34.2646 156.372 35.3812 156.791C36.4977 157.07 37.6143 157.628 38.7309 158.466C41.1036 159.024 43.6856 159.443 46.477 159.722C49.408 160.001 52.0599 160.141 54.4326 160.141H63.2255C64.6212 159.024 66.2263 158.047 68.0407 157.21L73.9027 155.116C75.9962 154.279 78.02 153.511 79.974 152.813C81.928 152.115 83.7424 151.278 85.4173 150.301C86.813 150.161 88.3482 149.812 90.0231 149.254C91.8375 148.696 93.5821 148.068 95.257 147.37C97.0714 146.672 98.7463 145.904 100.282 145.067C101.817 144.09 103.073 143.113 104.05 142.136C106.143 141.438 107.958 140.601 109.493 139.624C111.028 138.507 112.494 137.391 113.89 136.274C115.425 135.018 116.89 133.762 118.286 132.506C119.682 131.249 121.287 130.063 123.101 128.947L124.567 126.016C124.986 125.039 125.753 124.201 126.87 123.503C129.103 119.456 130.848 115.548 132.104 111.779C133.36 108.011 133.988 103.754 133.988 99.0087C133.988 94.4028 133.22 90.4948 131.685 87.2847C130.289 83.935 129.033 80.2364 127.917 76.1889L120.798 68.024C122.752 67.1865 124.637 66.1398 126.451 64.8836C128.405 63.6275 130.359 62.7203 132.313 62.162L142.571 52.3223C143.967 49.2517 144.874 46.7394 145.293 44.7854C145.712 42.8315 145.921 40.2494 145.921 37.0393C145.921 30.7586 143.897 25.3153 139.85 20.7095C135.802 16.1037 130.778 12.3353 124.776 9.40428C118.914 6.4733 112.703 4.30996 106.144 2.91424ZM77.2524 14.6382H80.6021C81.7186 14.6382 83.4633 14.9173 85.836 15.4756C88.3482 15.8943 90.9303 16.4526 93.5821 17.1505C96.234 17.8483 98.6765 18.6159 100.91 19.4534C103.282 20.1512 104.887 20.7793 105.725 21.3376C102.933 24.129 100.002 26.6413 96.9318 28.8744C93.8613 31.1075 90.9303 33.6198 88.1389 36.4112C85.0683 39.6213 82.4863 43.1804 80.3927 47.0884C78.4387 50.9963 76.6941 55.1137 75.1588 59.4404C73.6235 63.6275 72.158 67.8844 70.7623 72.2111C69.3666 76.5378 67.7616 80.5853 65.9471 84.3537C56.5959 82.958 49.0591 79.2594 43.3367 73.2579C37.7539 67.1168 34.9625 59.231 34.9625 49.6006C34.9625 41.9242 36.4279 35.7134 39.3589 30.9679C42.4295 26.083 47.3145 21.7563 54.0139 17.9879C57.5031 17.9879 61.2017 17.4296 65.1097 16.313C69.1573 15.1965 73.2048 14.6382 77.2524 14.6382ZM98.816 38.7141C101.468 32.7126 104.818 27.8276 108.865 24.0592C111.377 24.7571 113.75 26.083 115.983 28.037C118.216 29.9909 120.17 32.2939 121.845 34.9457C123.52 37.458 124.846 40.1796 125.823 43.1106C126.94 45.902 127.498 48.6236 127.498 51.2755C127.498 53.6482 126.87 55.6022 125.614 57.1375C124.497 58.6727 123.032 59.9289 121.217 60.9059C119.403 61.8829 117.379 62.5807 115.146 62.9994C113.052 63.4181 110.959 63.6275 108.865 63.6275C108.446 63.9066 107.539 64.5347 106.144 65.5117C104.748 66.4887 103.282 67.5355 101.747 68.652C100.212 69.7686 98.7463 70.8852 97.3505 72.0017C96.0944 72.9787 95.257 73.6766 94.8383 74.0953V76.8169L99.0254 78.4918C100.421 78.9105 101.538 79.8177 102.375 81.2134L105.725 83.3069C108.097 87.3545 110.121 91.4021 111.796 95.4496C113.471 99.4972 114.308 104.173 114.308 109.476C114.308 115.897 113.262 121.48 111.168 126.225C109.074 130.831 106.144 134.669 102.375 137.74C98.6067 140.81 94.1404 143.113 88.9763 144.648C83.9518 146.184 78.4387 146.951 72.4372 146.951C67.4126 146.951 63.0859 146.532 59.4571 145.695C55.9678 144.718 52.6879 143.532 49.6174 142.136C46.6864 140.601 43.6158 138.996 40.4057 137.321C37.3352 135.646 33.7063 133.971 29.5192 132.296C29.6588 131.598 31.194 130.133 34.125 127.9C37.056 125.527 40.3359 123.015 43.9648 120.363C47.7332 117.572 51.2922 114.92 54.6419 112.407C58.1312 109.895 60.4341 108.011 61.5507 106.755C69.0875 98.3806 75.0192 90.0761 79.3459 81.8415C83.6726 73.6068 87.3015 65.8606 90.2324 58.6029C93.303 51.2057 96.1642 44.5761 98.816 38.7141ZM423.45 0.611328C428.475 0.611328 434.267 1.37897 440.827 2.91424C447.387 4.30996 453.598 6.4733 459.46 9.40428C465.461 12.3353 470.486 16.1037 474.533 20.7095C478.581 25.3153 480.605 30.7586 480.605 37.0393C480.605 40.2494 480.395 42.8315 479.976 44.7854C479.558 46.7394 478.651 49.2517 477.255 52.3223L466.996 62.162C465.042 62.7203 463.088 63.6275 461.134 64.8836C459.32 66.1398 457.436 67.1865 455.482 68.024L462.6 76.1889C463.716 80.2364 464.973 83.935 466.368 87.2847C467.904 90.4948 468.671 94.4028 468.671 99.0087C468.671 103.754 468.043 108.011 466.787 111.779C465.531 115.548 463.786 119.456 461.553 123.503C460.437 124.201 459.669 125.039 459.25 126.016L457.785 128.947C455.97 130.063 454.365 131.249 452.97 132.506C451.574 133.762 450.108 135.018 448.573 136.274C447.177 137.391 445.712 138.507 444.177 139.624C442.641 140.601 440.827 141.438 438.733 142.136C437.756 143.113 436.5 144.09 434.965 145.067C433.43 145.904 431.755 146.672 429.94 147.37C428.266 148.068 426.521 148.696 424.706 149.254C423.032 149.812 421.496 150.161 420.101 150.301C418.426 151.278 416.611 152.115 414.657 152.813C412.703 153.511 410.68 154.279 408.586 155.116L402.724 157.21C400.91 158.047 399.305 159.024 397.909 160.141H389.116C386.743 160.141 384.091 160.001 381.16 159.722C378.369 159.443 375.787 159.024 373.414 158.466C372.298 157.628 371.181 157.07 370.065 156.791C368.948 156.372 367.692 156.023 366.296 155.744C365.319 154.767 363.435 153.581 360.644 152.185C357.852 150.65 354.851 149.184 351.641 147.789C348.431 146.393 345.361 145.276 342.43 144.439C339.638 143.602 337.614 143.392 336.358 143.811L334.683 141.508C338.033 138.856 341.383 136.623 344.732 134.809C348.222 132.855 351.502 131.18 354.572 129.784C357.782 128.388 360.644 127.132 363.156 126.016C365.668 124.899 367.622 123.713 369.018 122.457C371.809 120.084 374.81 117.362 378.02 114.292C381.37 111.082 384.51 108.36 387.441 106.127C388.837 103.754 390.302 101.521 391.838 99.4274C393.373 97.3338 394.838 95.0309 396.234 92.5186L389.535 93.356C387.441 93.4956 385.348 93.5654 383.254 93.5654C378.09 93.5654 373.693 92.5186 370.065 90.4251C366.575 88.1919 363.714 85.4005 361.481 82.0508C359.387 78.5616 357.852 74.7234 356.875 70.5362C355.898 66.2095 355.41 61.9526 355.41 57.7655C355.41 50.5078 357.713 43.4595 362.318 36.6206C366.924 29.7816 372.647 23.7103 379.486 18.4066C386.464 13.1029 393.861 8.846 401.677 5.63587C409.633 2.28618 416.891 0.611328 423.45 0.611328ZM415.285 14.6382H411.936C407.888 14.6382 403.841 15.1965 399.793 16.313C395.885 17.4296 392.186 17.9879 388.697 17.9879C381.998 21.7563 377.113 26.083 374.042 30.9679C371.111 35.7134 369.646 41.9242 369.646 49.6006C369.646 59.231 372.437 67.1168 378.02 73.2579C383.742 79.2594 391.279 82.958 400.631 84.3537C402.445 80.5853 404.05 76.5378 405.446 72.2111C406.841 67.8844 408.307 63.6275 409.842 59.4404C411.377 55.1137 413.122 50.9963 415.076 47.0884C417.17 43.1804 419.752 39.6213 422.822 36.4112C425.614 33.6198 428.545 31.1075 431.615 28.8744C434.686 26.6413 437.617 24.129 440.408 21.3376C439.571 20.7793 437.966 20.1512 435.593 19.4534C433.36 18.6159 430.917 17.8483 428.266 17.1505C425.614 16.4526 423.032 15.8943 420.519 15.4756C418.147 14.9173 416.402 14.6382 415.285 14.6382ZM443.549 24.0592C439.501 27.8276 436.151 32.7126 433.499 38.7141C430.848 44.5761 427.986 51.2057 424.916 58.6029C421.985 65.8606 418.356 73.6068 414.029 81.8415C409.703 90.0761 403.771 98.3806 396.234 106.755C395.117 108.011 392.815 109.895 389.325 112.407C385.976 114.92 382.417 117.572 378.648 120.363C375.019 123.015 371.739 125.527 368.808 127.9C365.877 130.133 364.342 131.598 364.203 132.296C368.39 133.971 372.019 135.646 375.089 137.321C378.299 138.996 381.37 140.601 384.301 142.136C387.371 143.532 390.651 144.718 394.14 145.695C397.769 146.532 402.096 146.951 407.121 146.951C413.122 146.951 418.635 146.184 423.66 144.648C428.824 143.113 433.29 140.81 437.058 137.74C440.827 134.669 443.758 130.831 445.851 126.225C447.945 121.48 448.992 115.897 448.992 109.476C448.992 104.173 448.154 99.4972 446.479 95.4496C444.805 91.4021 442.781 87.3545 440.408 83.3069L437.058 81.2134C436.221 79.8177 435.104 78.9105 433.709 78.4918L429.522 76.8169V74.0953C429.94 73.6766 430.778 72.9787 432.034 72.0017C433.43 70.8852 434.895 69.7686 436.43 68.652C437.966 67.5355 439.431 66.4887 440.827 65.5117C442.223 64.5347 443.13 63.9066 443.549 63.6275C445.642 63.6275 447.736 63.4181 449.829 62.9994C452.062 62.5807 454.086 61.8829 455.901 60.9059C457.715 59.9289 459.18 58.6727 460.297 57.1375C461.553 55.6022 462.181 53.6482 462.181 51.2755C462.181 48.6236 461.623 45.902 460.506 43.1106C459.529 40.1796 458.203 37.458 456.529 34.9457C454.854 32.2939 452.9 29.9909 450.667 28.037C448.433 26.083 446.061 24.7571 443.549 24.0592ZM760.325 101.102C760.325 86.4473 753.696 78.0033 740.437 75.7701C734.993 77.0263 729.55 78.9105 724.107 81.4228C718.664 83.935 713.779 87.1451 709.452 91.0531C705.125 94.9611 701.566 99.6367 698.775 105.08C696.123 110.384 694.797 116.455 694.797 123.294C694.797 126.644 695.146 130.272 695.844 134.18C696.542 137.949 697.658 141.508 699.193 144.858C700.729 148.068 702.753 150.789 705.265 153.023C707.917 155.116 711.127 156.163 714.895 156.163C720.757 156.163 726.41 154.418 731.853 150.929C737.296 147.44 742.111 143.043 746.299 137.74C750.625 132.296 754.045 126.365 756.557 119.944C759.069 113.384 760.325 107.104 760.325 101.102ZM715.523 94.8215C716.64 92.728 718.105 90.9833 719.92 89.5876C721.315 89.3085 722.641 88.9596 723.897 88.5409C725.154 87.9826 726.41 87.7034 727.666 87.7034C730.457 87.7034 732.83 88.4013 734.784 89.797C736.878 91.0531 738.552 92.728 739.809 94.8215C741.065 96.9151 741.972 99.3576 742.53 102.149C743.088 104.801 743.368 107.453 743.368 110.105C743.368 115.966 742.321 122.108 740.227 128.528C738.134 134.948 735.133 140.322 731.225 144.648L729.131 145.067C726.2 145.067 723.618 144.02 721.385 141.927C719.152 139.833 717.338 137.321 715.942 134.39C714.546 131.319 713.499 128.109 712.802 124.759C712.104 121.27 711.755 118.2 711.755 115.548C711.755 113.315 711.825 111.012 711.964 108.639C712.104 106.127 712.453 103.684 713.011 101.312C713.569 98.9389 714.407 96.7755 715.523 94.8215ZM650.227 78.7011C649.39 77.7241 648.343 77.2356 647.087 77.2356C645.831 77.2356 644.435 77.6543 642.9 78.4918C641.364 79.1896 639.829 80.0968 638.294 81.2134C636.758 82.33 635.293 83.5861 633.897 84.9818C632.641 86.2379 631.664 87.3545 630.966 88.3315C632.362 89.4481 633.339 90.9136 633.897 92.728C634.456 94.4028 634.735 96.2172 634.735 98.1712C634.735 101.102 634.386 103.963 633.688 106.755C632.99 109.407 632.083 112.128 630.966 114.92C629.989 117.572 628.943 120.223 627.826 122.875C626.849 125.527 626.012 128.249 625.314 131.04C625.035 131.459 624.267 133.134 623.011 136.065C621.894 138.856 620.708 141.927 619.452 145.276C618.195 148.486 617.079 151.557 616.102 154.488C614.985 157.279 614.427 158.884 614.427 159.303C614.427 159.582 614.776 159.931 615.474 160.35C616.032 160.769 616.451 160.978 616.73 160.978C617.847 160.978 619.033 160.629 620.289 159.931C621.406 159.233 622.522 158.396 623.639 157.419C624.895 156.582 626.081 155.744 627.198 154.907C628.314 154.069 629.361 153.511 630.338 153.232C631.176 151.836 632.362 149.324 633.897 145.695C635.433 141.927 637.107 137.74 638.922 133.134C640.736 128.528 642.62 123.713 644.574 118.688C646.668 113.664 648.622 109.058 650.436 104.871C652.39 100.683 654.135 97.264 655.67 94.6122C657.345 91.9603 658.671 90.6344 659.648 90.6344C660.485 90.6344 661.462 90.774 662.579 91.0531C663.696 91.1927 664.812 91.2625 665.929 91.2625C667.604 92.5186 669.069 94.0539 670.325 95.8683C671.581 97.6827 672.349 99.6367 672.628 101.73L675.35 105.499C676.466 105.359 678.002 104.871 679.956 104.033C681.91 103.056 683.794 102.009 685.608 100.893C687.423 99.7763 688.958 98.5201 690.214 97.1244C691.61 95.7287 692.308 94.4028 692.308 93.1467V91.4718C692.308 90.9136 692.168 90.4948 691.889 90.2157C691.61 88.2617 690.912 86.6566 689.795 85.4005C688.818 84.1444 687.772 82.8185 686.655 81.4227C684.701 80.5853 682.747 79.8875 680.793 79.3292C678.839 78.7709 676.676 78.4918 674.303 78.4918C673.605 78.4918 672.279 78.9803 670.325 79.9573C668.511 80.9342 666.557 82.0508 664.463 83.3069C662.37 84.5631 660.346 85.8192 658.392 87.0754C656.438 88.1919 654.972 88.9596 653.995 89.3783C653.995 88.4013 653.856 87.2149 653.577 85.8192C653.437 84.4235 653.088 83.0976 652.53 81.8415C651.972 80.5853 651.204 79.5385 650.227 78.7011ZM576.347 77.2356C577.603 77.2356 578.65 77.7241 579.488 78.7011C580.465 79.5385 581.232 80.5853 581.791 81.8415C582.349 83.0976 582.698 84.4235 582.837 85.8192C583.116 87.2149 583.256 88.4013 583.256 89.3783C584.233 88.9596 585.698 88.1919 587.652 87.0754C589.606 85.8192 591.63 84.5631 593.724 83.3069C595.817 82.0508 597.771 80.9342 599.586 79.9573C601.54 78.9803 602.866 78.4918 603.564 78.4918C605.936 78.4918 608.1 78.7709 610.054 79.3292C612.008 79.8875 613.962 80.5853 615.916 81.4227C617.032 82.8185 618.079 84.1444 619.056 85.4005C620.172 86.6566 620.87 88.2617 621.149 90.2157C621.429 90.4948 621.568 90.9136 621.568 91.4718V93.1467C621.568 94.4028 620.87 95.7287 619.475 97.1244C618.218 98.5201 616.683 99.7763 614.869 100.893C613.054 102.009 611.17 103.056 609.216 104.033C607.262 104.871 605.727 105.359 604.61 105.499L601.889 101.73C601.61 99.6367 600.842 97.6827 599.586 95.8683C598.33 94.0539 596.864 92.5186 595.189 91.2625C594.073 91.2625 592.956 91.1927 591.84 91.0531C590.723 90.774 589.746 90.6344 588.909 90.6344C587.932 90.6344 586.606 91.9603 584.931 94.6122C583.396 97.264 581.651 100.683 579.697 104.871C577.883 109.058 575.929 113.664 573.835 118.688C571.881 123.713 569.997 128.528 568.182 133.134C566.368 137.74 564.693 141.927 563.158 145.695C561.623 149.324 560.436 151.836 559.599 153.232C558.622 153.511 557.575 154.069 556.458 154.907C555.342 155.744 554.156 156.582 552.899 157.419C551.783 158.396 550.666 159.233 549.55 159.931C548.294 160.629 547.107 160.978 545.991 160.978C545.711 160.978 545.293 160.769 544.734 160.35C544.037 159.931 543.688 159.582 543.688 159.303C543.688 158.884 544.246 157.279 545.363 154.488C546.34 151.557 547.456 148.486 548.712 145.276C549.968 141.927 551.155 138.856 552.271 136.065C553.527 133.134 554.295 131.459 554.574 131.04C555.272 128.249 556.109 125.527 557.086 122.875C558.203 120.223 559.25 117.572 560.227 114.92C561.343 112.128 562.251 109.407 562.948 106.755C563.646 103.963 563.995 101.102 563.995 98.1712C563.995 96.2172 563.716 94.4028 563.158 92.728C562.6 90.9136 561.622 89.4481 560.227 88.3315C560.925 87.3545 561.902 86.2379 563.158 84.9818C564.554 83.5861 566.019 82.33 567.554 81.2134C569.09 80.0968 570.625 79.1896 572.16 78.4918C573.695 77.6543 575.091 77.2356 576.347 77.2356ZM553.791 79.3292L551.069 78.0731C545.626 81.2832 541.229 84.4235 537.88 87.4941C534.67 90.5646 532.088 93.705 530.134 96.9151C528.319 99.9856 526.923 103.196 525.946 106.545C525.109 109.756 524.272 113.175 523.434 116.804C522.736 120.293 521.829 123.922 520.713 127.69C519.596 131.459 517.991 135.437 515.897 139.624L515.479 138.996C512.687 140.391 509.896 142.066 507.104 144.02C504.453 145.835 501.382 146.742 497.893 146.742C496.637 146.742 495.52 146.602 494.543 146.323C493.706 145.904 492.798 145.346 491.821 144.648C490.844 143.532 490.077 142.624 489.518 141.927C489.1 141.089 488.89 139.973 488.89 138.577C488.89 134.39 489.658 130.133 491.193 125.806C492.868 121.48 494.613 117.083 496.427 112.617C498.381 108.011 500.126 103.475 501.661 99.0087C503.336 94.5424 504.173 90.1459 504.173 85.8192C504.173 84.0048 503.615 82.1904 502.499 80.376C501.522 78.5615 499.986 77.6543 497.893 77.6543C496.357 78.2126 495.032 78.9803 493.915 79.9573C492.798 80.9342 491.473 81.7019 489.937 82.2602C488.821 83.5163 487.634 84.5631 486.378 85.4005C485.122 86.0984 484.145 87.1451 483.447 88.5408V88.7502C484.145 94.0539 483.796 99.2878 482.4 104.452C481.005 109.476 479.33 114.501 477.376 119.526C475.422 124.411 473.538 129.435 471.723 134.599C470.048 139.624 469.211 144.788 469.211 150.092C469.211 151.766 469.56 153.162 470.258 154.279C471.095 155.256 472.072 156.093 473.189 156.791C474.445 157.349 475.771 157.698 477.167 157.838C478.702 158.117 480.167 158.256 481.563 158.256C485.192 158.256 488.193 157.698 490.565 156.582C493.078 155.465 495.799 154.348 498.73 153.232C501.94 151.976 504.662 150.51 506.895 148.835C509.268 147.021 511.64 145.067 514.013 142.973C513.734 144.509 513.455 145.904 513.176 147.161C513.036 148.277 512.966 149.603 512.966 151.138C512.966 153.092 513.106 154.418 513.385 155.116C514.362 155.674 515.409 156.372 516.525 157.21C517.782 158.047 518.968 158.466 520.084 158.466C520.922 158.466 522.108 158.117 523.644 157.419C525.179 156.721 526.714 155.953 528.249 155.116C529.785 154.139 531.18 153.162 532.436 152.185C533.832 151.208 534.809 150.44 535.367 149.882C534.53 148.347 533.623 146.881 532.646 145.486C531.808 143.95 531.39 142.415 531.39 140.88C531.39 139.903 531.529 139.065 531.808 138.368C532.088 137.53 532.367 136.763 532.646 136.065C532.646 133.413 533.413 129.435 534.949 124.131C536.624 118.688 538.578 113.035 540.811 107.174C543.183 101.312 545.556 95.7985 547.929 90.6344C550.302 85.4703 552.255 81.7019 553.791 79.3292ZM238.466 78.7011C237.629 77.7241 236.582 77.2356 235.326 77.2356C234.07 77.2356 232.674 77.6543 231.139 78.4918C229.604 79.1896 228.068 80.0968 226.533 81.2134C224.998 82.33 223.532 83.5861 222.137 84.9818C220.88 86.2379 219.903 87.3545 219.206 88.3315C220.601 89.4481 221.578 90.9136 222.137 92.728C222.695 94.4028 222.974 96.2172 222.974 98.1712C222.974 101.102 222.625 103.963 221.927 106.755C221.229 109.407 220.322 112.128 219.206 114.92C218.229 117.572 217.182 120.223 216.065 122.875C215.088 125.527 214.251 128.249 213.553 131.04C213.274 131.459 212.506 133.134 211.25 136.065C210.133 138.856 208.947 141.927 207.691 145.276C206.435 148.486 205.318 151.557 204.341 154.488C203.225 157.279 202.666 158.884 202.666 159.303C202.666 159.582 203.015 159.931 203.713 160.35C204.271 160.769 204.69 160.978 204.969 160.978C206.086 160.978 207.272 160.629 208.528 159.931C209.645 159.233 210.762 158.396 211.878 157.419C213.134 156.582 214.321 155.744 215.437 154.907C216.554 154.069 217.6 153.511 218.577 153.232C219.415 151.836 220.601 149.324 222.137 145.695C223.672 141.927 225.347 137.74 227.161 133.134C228.976 128.528 230.86 123.713 232.814 118.688C234.907 113.664 236.861 109.058 238.676 104.871C240.63 100.683 242.374 97.264 243.91 94.6122C245.584 91.9603 246.91 90.6344 247.887 90.6344C248.725 90.6344 249.702 90.774 250.818 91.0531C251.935 91.1927 253.051 91.2625 254.168 91.2625C255.843 92.5186 257.308 94.0539 258.564 95.8683C259.821 97.6827 260.588 99.6367 260.867 101.73L263.589 105.499C264.706 105.359 266.241 104.871 268.195 104.033C270.149 103.056 272.033 102.009 273.847 100.893C275.662 99.7763 277.197 98.5201 278.453 97.1244C279.849 95.7287 280.547 94.4028 280.547 93.1467V91.4718C280.547 90.9136 280.407 90.4948 280.128 90.2157C279.849 88.2617 279.151 86.6566 278.035 85.4005C277.058 84.1444 276.011 82.8185 274.894 81.4227C272.94 80.5853 270.986 79.8875 269.032 79.3292C267.078 78.7709 264.915 78.4918 262.542 78.4918C261.844 78.4918 260.518 78.9803 258.564 79.9573C256.75 80.9342 254.796 82.0508 252.703 83.3069C250.609 84.5631 248.585 85.8192 246.631 87.0754C244.677 88.1919 243.212 88.9596 242.235 89.3783C242.235 88.4013 242.095 87.2149 241.816 85.8192C241.676 84.4235 241.328 83.0976 240.769 81.8415C240.211 80.5853 239.443 79.5385 238.466 78.7011ZM179.748 73.4672C182.819 73.4672 185.75 74.1651 188.541 75.5608C191.333 76.9565 194.124 77.6544 196.916 77.6544C197.474 78.0731 198.381 78.7011 199.637 79.5386C200.893 80.2364 202.219 81.004 203.615 81.8415C205.011 82.6789 206.267 83.5861 207.383 84.5631C208.5 85.4005 209.268 86.0984 209.686 86.6567L209.477 90.2157C206.406 93.2863 204.243 96.1475 202.987 98.7993C201.731 101.312 200.754 103.894 200.056 106.545C199.498 109.197 198.939 111.919 198.381 114.71C197.823 117.362 196.706 120.363 195.031 123.713L194.403 128.318C194.264 128.458 194.054 128.877 193.775 129.575C193.636 130.272 193.426 131.04 193.147 131.878C192.868 132.715 192.589 133.483 192.31 134.18C192.17 134.739 192.1 135.088 192.1 135.227C191.961 136.344 191.961 137.321 192.1 138.158C192.38 138.996 192.659 139.763 192.938 140.461L196.497 143.392L194.822 147.579C192.449 148.835 190.426 150.092 188.751 151.348C187.076 152.464 185.122 153.581 182.889 154.697C181.772 154.418 180.656 153.93 179.539 153.232C178.423 152.534 177.585 151.627 177.027 150.51L175.561 145.486C174.026 146.881 172.7 148.277 171.584 149.673C170.467 150.929 169.281 152.046 168.025 153.023C166.908 153.999 165.582 154.767 164.047 155.325C162.512 155.884 160.488 156.163 157.975 156.163C154.347 156.163 150.997 155.116 147.926 153.023C144.995 150.929 142.413 148.277 140.18 145.067C138.087 141.857 136.482 138.368 135.365 134.599C134.248 130.691 133.83 126.923 134.109 123.294C134.388 118.269 135.993 112.896 138.924 107.174C141.995 101.312 145.763 95.9381 150.229 91.0531C154.835 86.0286 159.72 81.8415 164.884 78.4918C170.188 75.1421 175.143 73.4672 179.748 73.4672ZM148.136 111.151C147.857 114.641 148.275 118.06 149.392 121.41C150.648 124.62 151.834 127.76 152.951 130.831C154.347 131.947 155.603 133.134 156.719 134.39C157.975 135.646 159.232 136.832 160.488 137.949C161.744 139.065 163.07 140.042 164.465 140.88C166.001 141.578 167.745 141.927 169.699 141.927C170.816 141.927 171.933 141.857 173.049 141.717C174.166 141.578 175.282 141.647 176.399 141.927C178.213 138.437 179.679 134.809 180.795 131.04C181.912 127.272 182.959 123.503 183.936 119.735C185.052 115.966 186.308 112.338 187.704 108.848C189.239 105.22 191.263 101.73 193.775 98.3806C191.961 97.264 190.286 95.9381 188.751 94.4028C185.401 93.1467 181.982 91.8906 178.492 90.6344C175.143 89.3783 171.653 88.7502 168.025 88.7502C161.465 88.7502 156.58 90.8438 153.37 95.0309C150.16 99.0784 148.415 104.452 148.136 111.151ZM184.364 256H165.471V224.744H184.102V228.531H168.953V238.065H182.927V241.852H168.953V252.213H184.364V256ZM155.815 256H159.69V224.744H156.338V250.123L143.409 224.744H139.317V256H142.669V230.621L155.815 256ZM133.416 256H129.977V224.744H133.416V256ZM119.381 256L126.128 224.744H122.298L117.509 250.341L111.719 224.744H107.932L102.142 250.341L97.3102 224.744H93.5664L100.227 256H103.884L109.847 229.924L115.724 256H119.381ZM681.647 256H677.381C677.076 254.738 676.815 251.473 676.815 248.164C676.815 244.159 675.379 242.592 672.244 242.592H663.843V256H660.36V224.744H672.244C677.686 224.744 680.646 227.704 680.646 233.189C680.646 236.715 679.732 238.631 677.076 240.633C679.297 241.678 679.95 242.941 680.167 246.51L680.341 252.169C680.385 254.085 680.602 254.564 681.647 255.304V256ZM677.076 233.538C677.076 230.055 675.553 228.357 672.462 228.357H663.843V238.979H671.853C675.422 238.979 677.076 237.238 677.076 233.538ZM652.965 256H656.752L647.48 224.744H643.519L633.898 256H637.468L640.167 246.902H650.44L652.965 256ZM645.347 229.271L649.178 243.115H641.211L645.347 229.271ZM632.626 246.684C632.626 252.3 629.187 256 623.963 256H612.906V224.744H624.18C628.534 224.744 631.407 227.878 631.407 232.623C631.407 235.627 630.362 237.63 628.011 239.153C631.363 240.808 632.626 242.854 632.626 246.684ZM627.924 233.015C627.924 229.837 626.27 228.357 622.657 228.357H616.388V237.978H622.613C626.226 237.978 627.924 236.411 627.924 233.015ZM629.143 246.684C629.143 243.158 627.141 241.373 623.179 241.373H616.388V252.387H623.789C627.184 252.387 629.143 250.298 629.143 246.684ZM593.013 256L599.761 224.744H595.93L591.142 250.341L585.352 224.744H581.564L575.775 250.341L570.943 224.744H567.199L573.859 256H577.516L583.48 229.924L589.357 256H593.013ZM567.902 256H564.115L561.59 246.902H551.317L548.618 256H545.048L554.669 224.744H558.63L567.902 256ZM560.328 243.115L556.497 229.271L552.362 243.115H560.328ZM538.962 256H543.229V255.304C542.184 254.564 541.966 254.085 541.923 252.169L541.749 246.51C541.531 242.941 540.878 241.678 538.658 240.633C541.313 238.631 542.227 236.715 542.227 233.189C542.227 227.704 539.267 224.744 533.826 224.744H521.941V256H525.424V242.592H533.826C536.96 242.592 538.397 244.159 538.397 248.164C538.397 251.473 538.658 254.738 538.962 256ZM534.043 228.357C537.134 228.357 538.658 230.055 538.658 233.538C538.658 237.238 537.004 238.979 533.434 238.979H525.424V228.357H534.043ZM440.256 247.425C440.256 253.259 436.425 256.828 430.157 256.828C424.193 256.828 419.883 253.607 419.883 245.902H423.148C423.148 250.821 425.847 253.215 430.331 253.215C434.467 253.215 436.904 251.256 436.904 247.817C436.904 244.857 435.685 243.595 431.463 242.419L426.195 240.939C422.582 239.938 420.754 237.413 420.754 233.452C420.754 227.966 423.975 223.918 429.896 223.918C435.903 223.918 439.56 227.009 439.56 233.887H436.295C436.295 229.621 433.683 227.531 429.896 227.531C426.239 227.531 424.106 229.534 424.106 232.929C424.106 235.149 425.064 236.412 427.11 236.978L434.423 239.024C438.254 240.112 440.256 242.985 440.256 247.425ZM404.268 256.828C412.409 256.828 416.762 249.254 416.762 240.417C416.762 230.622 411.625 223.918 404.443 223.918C396.215 223.918 391.775 231.231 391.775 240.417C391.775 249.254 396.128 256.828 404.268 256.828ZM404.399 227.705C409.623 227.705 413.193 232.842 413.193 240.373C413.193 247.991 409.623 253.041 404.268 253.041C398.914 253.041 395.344 247.991 395.344 240.417C395.344 232.668 398.87 227.705 404.399 227.705ZM389.123 244.509C388.252 249.471 387.251 251.691 385.336 253.694C383.377 255.74 380.765 256.828 377.935 256.828C370.883 256.828 366.399 250.473 366.399 240.417C366.399 230.317 371.057 223.918 378.371 223.918C383.986 223.918 388.035 227.618 388.862 234.148H385.51C384.465 229.534 382.027 227.705 378.458 227.705C373.147 227.705 369.969 232.537 369.969 240.547C369.969 248.47 373.016 253.041 378.24 253.041C381.984 253.041 384.552 250.69 385.771 244.509H389.123ZM353.04 256.828C359.309 256.828 363.14 253.259 363.14 247.425C363.14 242.985 361.137 240.112 357.306 239.024L349.993 236.978C347.947 236.412 346.989 235.149 346.989 232.929C346.989 229.534 349.122 227.531 352.779 227.531C356.566 227.531 359.178 229.621 359.178 233.887H362.443C362.443 227.009 358.787 223.918 352.779 223.918C346.859 223.918 343.637 227.966 343.637 233.452C343.637 237.413 345.466 239.938 349.079 240.939L354.346 242.419C358.569 243.595 359.788 244.857 359.788 247.817C359.788 251.256 357.35 253.215 353.214 253.215C348.731 253.215 346.032 250.821 346.032 245.902H342.767C342.767 253.607 347.076 256.828 353.04 256.828ZM337.824 256.001H334.385V224.745H337.824V256.001ZM321.979 228.532H330.642V224.745H309.79V228.532H318.497V256.001H321.979V228.532ZM307.489 256.001H288.596V224.745H307.227V228.532H292.078V238.066H306.052V241.853H292.078V252.214H307.489V256.001ZM276.282 242.811C280.896 242.811 283.9 239.154 283.9 233.582C283.9 228.271 280.852 224.745 276.282 224.745H264.789V256.001H268.272V242.811H276.282ZM275.237 228.358C278.676 228.358 280.33 230.1 280.33 233.713C280.33 237.369 278.589 239.198 275.106 239.198H268.272V228.358H275.237Z" fill="black"/>
</svg>
